<svg fill="#000000" xmlns="http://www.w3.org/2000/svg"  viewBox="0 0 24 24" width="24px" height="24px"><path d="M 4 3 C 3.4777778 3 2.9453899 3.1913289 2.5683594 3.5683594 C 2.1913289 3.9453899 2 4.4777778 2 5 L 2 17 C 2 17.522222 2.1913289 18.05461 2.5683594 18.431641 C 2.9453899 18.808671 3.4777778 19 4 19 L 17.986328 19 L 22 23.013672 L 22 5 C 22 4.4777778 21.808671 3.9453899 21.431641 3.5683594 C 21.05461 3.1913289 20.522222 3 20 3 L 4 3 z M 7 8 L 17 8 L 17 10 L 7 10 L 7 8 z M 7 12 L 14 12 L 14 14 L 7 14 L 7 12 z"/></svg>